# Blender v2.77 (sub 0) OBJ File: ''
# www.blender.org
o Cube.003_Cube.004
v -2.000000 0.000000 -0.000001
v 2.000000 0.000000 0.000001
v 2.000000 7.000000 0.000004
v -2.000000 7.000000 0.000003
v -1.555556 3.250000 0.069105
v -1.555556 3.250000 0.000002
v -2.000000 3.250000 0.000002
v -2.000000 3.250000 0.056407
v 0.222222 2.750000 0.130001
v 0.222222 2.750000 0.000001
v 0.692668 2.733720 0.000001
v 0.692668 2.733720 0.112213
v -1.099097 3.267529 0.130002
v -1.099097 3.287922 0.000002
v 2.000000 3.250000 0.130003
v 2.000000 3.250000 0.000003
v 1.555556 3.230974 0.000003
v 1.555556 3.230974 0.130003
v 1.111111 3.232364 0.000003
v 1.111111 3.232364 0.130003
v 1.111111 2.771325 0.130001
v 1.555556 2.798349 0.130001
v 1.111111 2.732364 0.000001
v 1.111111 2.732364 0.091050
v -0.391245 3.234150 0.131078
v -0.666667 3.250000 0.151165
v -0.666667 2.750000 0.151163
v -0.205971 2.769817 0.130000
v -0.666667 3.250000 0.000002
v -1.555556 3.176435 0.142700
v -1.555556 2.823565 0.142698
v -1.123126 2.808892 0.130000
v -2.000000 3.176435 0.130002
v -2.000000 2.823565 0.130000
v -1.123126 2.788499 0.000000
v -0.666667 2.750000 0.000000
v -0.205971 2.769817 0.000000
v 0.796640 3.190471 0.155955
v 0.701528 2.772643 0.151572
v 0.227311 3.212984 0.131079
v 1.555556 2.761791 0.091050
v 1.555556 2.761791 0.000001
v 2.000000 2.750000 0.000001
v 2.000000 2.750000 0.091050
v 0.791843 3.230434 0.116185
v 0.640665 3.231008 0.000003
v 0.222222 3.250000 0.000003
v 0.227311 3.252758 0.091309
v -0.238474 3.268760 0.000002
v -0.394225 3.274004 0.091308
v -1.555556 2.750000 0.069103
v -1.555556 2.750000 -0.000000
v 2.000000 2.788960 0.130001
v -2.000000 2.750000 0.056405
v -2.000000 2.750000 -0.000000
v -0.285714 0.300000 0.122837
v -0.285714 0.300000 -0.000000
v -0.857143 0.300000 -0.000000
v -0.857143 0.300000 0.058969
v 2.000000 0.300000 0.100001
v 1.428571 0.244130 0.113838
v 1.428571 -0.000000 0.113838
v 2.000000 -0.000000 0.100001
v 0.285714 0.239520 0.100000
v -0.285714 -0.000000 0.122837
v 0.285714 -0.000000 0.100000
v -2.000000 0.300000 0.099999
v -1.428571 0.276486 0.069016
v -1.428571 0.276486 -0.000000
v -2.000000 0.300000 -0.000001
v 0.857143 0.258827 0.100000
v 0.857143 -0.000000 0.100000
v -0.857143 0.258941 0.100000
v -1.428571 0.235426 0.110047
v -1.428571 -0.000000 0.110047
v -0.857143 -0.000000 0.100000
v 1.428571 0.285303 0.072807
v 1.428571 0.285303 0.000000
v 0.857143 0.300000 0.000000
v 0.857143 0.300000 0.058970
v 0.285714 0.280693 0.000000
v 0.285714 0.280693 0.058970
v -2.000000 -0.000000 0.099999
v 2.000000 0.300000 0.000001
v 0.239795 6.750421 0.122838
v 0.239795 6.727461 0.000001
v 0.857143 6.704502 0.000001
v 0.857143 6.704502 0.058970
v -2.000000 6.737719 0.100000
v -1.428571 6.760373 0.113839
v -1.428571 7.004502 0.113839
v -2.000000 7.004502 0.100001
v -0.285714 6.764982 0.100001
v 0.285714 7.004502 0.122838
v -0.285714 7.004502 0.100001
v 2.000000 6.735115 0.100002
v 1.428571 6.728016 0.069018
v 1.428571 6.728016 0.000002
v 2.000000 6.704502 0.000002
v -0.806633 6.727308 0.100001
v -0.857143 7.004502 0.100001
v 0.857143 6.745561 0.100001
v 1.428571 6.769076 0.110049
v 1.428571 7.004502 0.110049
v 0.857143 7.004502 0.100001
v -1.428571 6.719200 0.072808
v -1.428571 6.719200 0.000001
v -0.806633 6.686135 0.000001
v -0.806633 6.686135 0.058971
v -0.285714 6.723809 0.000001
v -0.285714 6.723809 0.058971
v 2.000000 7.004502 0.100002
v -2.000000 6.704503 0.000000
vt 0.0151 0.4262
vt 0.3327 0.4262
vt 0.3327 0.9820
vt 0.0151 0.9820
vt 0.1982 0.3673
vt 0.2050 0.3678
vt 0.2033 0.4115
vt 0.1978 0.4112
vt 0.1480 0.1927
vt 0.1352 0.1928
vt 0.1349 0.1468
vt 0.1458 0.1469
vt 0.1958 0.3225
vt 0.2085 0.3232
vt 0.1967 0.0183
vt 0.2094 0.0187
vt 0.2081 0.0623
vt 0.1953 0.0622
vt 0.2082 0.1059
vt 0.1954 0.1059
vt 0.1503 0.1063
vt 0.1521 0.0623
vt 0.1359 0.1059
vt 0.1449 0.1063
vt 0.1947 0.2541
vt 0.1949 0.2811
vt 0.1486 0.2795
vt 0.1485 0.2352
vt 0.2097 0.2811
vt 0.1879 0.3672
vt 0.1533 0.3674
vt 0.1503 0.3245
vt 0.1877 0.4109
vt 0.1531 0.4109
vt 0.1371 0.3248
vt 0.1342 0.2798
vt 0.1357 0.2350
vt 0.1913 0.1367
vt 0.1512 0.1461
vt 0.1938 0.1929
vt 0.1468 0.0623
vt 0.1377 0.0621
vt 0.1373 0.0184
vt 0.1462 0.0183
vt 0.1968 0.1372
vt 0.2082 0.1521
vt 0.2083 0.1933
vt 0.1993 0.1929
vt 0.2091 0.2389
vt 0.2003 0.2544
vt 0.1433 0.3677
vt 0.1366 0.3677
vt 0.1516 0.0183
vt 0.1428 0.4109
vt 0.1373 0.4110
vt 0.0443 0.2404
vt 0.0561 0.2403
vt 0.0538 0.2957
vt 0.0480 0.2955
vt 0.0447 0.0154
vt 0.0405 0.0717
vt 0.0164 0.0721
vt 0.0153 0.0161
vt 0.0415 0.1845
vt 0.0156 0.2401
vt 0.0176 0.1842
vt 0.0445 0.4085
vt 0.0458 0.3522
vt 0.0526 0.3521
vt 0.0543 0.4083
vt 0.0423 0.1278
vt 0.0171 0.1280
vt 0.0424 0.2955
vt 0.0401 0.3521
vt 0.0169 0.3518
vt 0.0170 0.2958
vt 0.0462 0.0717
vt 0.0534 0.0717
vt 0.0537 0.1278
vt 0.0480 0.1278
vt 0.0531 0.1843
vt 0.0472 0.1844
vt 0.0153 0.4076
vt 0.0544 0.0156
vt 0.0880 0.1886
vt 0.0758 0.1887
vt 0.0756 0.1286
vt 0.0814 0.1287
vt 0.0865 0.4090
vt 0.0889 0.3527
vt 0.1129 0.3527
vt 0.1128 0.4090
vt 0.0882 0.2403
vt 0.1126 0.1843
vt 0.1120 0.2402
vt 0.0861 0.0168
vt 0.0833 0.0728
vt 0.0764 0.0728
vt 0.0759 0.0168
vt 0.0862 0.2918
vt 0.1133 0.2965
vt 0.0870 0.1287
vt 0.0890 0.0728
vt 0.1120 0.0728
vt 0.1123 0.1285
vt 0.0831 0.3527
vt 0.0759 0.3527
vt 0.0747 0.2918
vt 0.0805 0.2918
vt 0.0767 0.2404
vt 0.0825 0.2404
vt 0.1124 0.0169
vt 0.0762 0.4090
vn -0.0000 -0.0000 1.0000
vn -0.0353 0.9979 0.0535
vn -0.0336 0.9981 0.0509
vn 0.0000 1.0000 0.0000
vn -0.0405 -0.9992 0.0000
vn -0.0404 -0.9992 0.0000
vn -0.0189 -0.9998 0.0000
vn -0.0194 -0.9998 0.0000
vn 0.0013 0.9963 0.0863
vn -0.0025 0.9962 0.0871
vn -0.0428 0.9991 0.0000
vn -0.0198 0.9998 0.0000
vn -0.0006 1.0000 0.0025
vn -0.0005 1.0000 0.0024
vn 0.0317 -0.0058 0.9995
vn 0.0337 -0.0062 0.9994
vn 0.0314 -0.9995 0.0000
vn 0.0309 -0.9995 0.0000
vn 0.0354 0.0052 0.9994
vn 0.0026 0.0053 1.0000
vn 0.0057 0.0055 1.0000
vn 0.0213 0.0022 0.9998
vn 0.0016 1.0000 0.0080
vn -0.0021 1.0000 0.0041
vn -0.0128 0.0003 0.9999
vn 0.0017 -0.0005 1.0000
vn 0.0003 -0.0004 1.0000
vn -0.0101 0.0002 0.9999
vn -0.0286 -0.0000 0.9996
vn -0.0081 -0.9962 0.0862
vn -0.0016 -0.9962 0.0871
vn -0.0324 -0.9988 0.0361
vn -0.0323 -0.9988 0.0361
vn -0.0016 -1.0000 0.0000
vn -0.0010 -1.0000 0.0000
vn 0.0200 -0.0076 0.9998
vn 0.0025 -0.0058 1.0000
vn -0.0218 -0.0018 0.9998
vn -0.0220 -0.0018 0.9998
vn 0.0198 -0.9998 0.0000
vn -0.0265 -0.9996 0.0000
vn 0.0050 1.0000 -0.0044
vn 0.0332 0.9989 -0.0329
vn 0.0399 0.9988 -0.0276
vn 0.0401 0.9988 -0.0288
vn 0.0194 0.9996 -0.0220
vn -0.0499 0.9972 -0.0561
vn 0.0550 -0.9971 0.0534
vn 0.0523 -0.9973 0.0508
vn -0.0178 0.7047 0.7093
vn -0.0195 0.7045 0.7094
vn -0.0350 0.7028 0.7105
vn 0.0568 0.7073 0.7046
vn 0.0571 0.7073 0.7046
vn 0.0918 0.7068 0.7014
vn 0.0109 0.7066 0.7075
vn 0.0102 0.7066 0.7075
vn 0.0168 -0.7110 0.7030
vn 0.0198 -0.7109 0.7030
vn 0.0020 -0.7112 0.7029
vn 0.0145 -0.7179 0.6960
vn -0.0171 -0.7179 0.6959
vn 0.0140 -0.7179 0.6960
vn 0.0397 -0.7139 0.6991
vn 0.0398 -0.7139 0.6991
vn -0.0691 0.7056 0.7053
vn -0.0681 0.7056 0.7053
vn -0.1206 0.7021 0.7018
vn -0.0118 -0.7072 0.7069
vn -0.0123 -0.7072 0.7069
vn -0.0032 -0.7072 0.7070
vn -0.0202 0.7071 0.7068
vn -0.0202 -0.7071 0.7068
vn 0.0000 -1.0000 0.0000
vn 0.0169 0.9999 0.0000
vn -0.0206 0.9998 0.0000
vn -0.0200 0.9998 0.0000
vn 0.0242 -0.0000 0.9997
vn 0.0005 -0.0000 1.0000
vn 0.0204 -0.0000 0.9998
vn -0.0005 -0.0000 1.0000
vn 0.0200 -0.0000 0.9998
vn 0.0411 0.9992 0.0000
vn 0.0009 1.0000 0.0000
vn -0.0121 -0.0000 0.9999
vn -0.0122 -0.0000 0.9999
vn -0.0004 -0.0000 1.0000
vn -0.0112 -0.0000 0.9999
vn -0.0006 1.0000 0.0000
vn -0.0040 1.0000 0.0000
vn -0.0038 1.0000 0.0000
vn 0.0012 1.0000 0.0000
vn -0.0176 -0.0000 0.9998
vn -0.0250 0.7057 0.7081
vn -0.0518 0.7049 0.7074
vn 0.0389 0.7053 0.7078
vn 0.0378 0.7054 0.7078
vn 0.1025 0.7022 0.7046
vn -0.0474 0.7061 0.7066
vn -0.0471 0.7061 0.7066
vn -0.0788 0.7047 0.7051
vn 0.0246 0.7066 0.7071
vn 0.0247 0.7066 0.7071
vn 0.0673 0.7053 0.7058
vn -0.0115 0.7058 0.7083
vn -0.0114 0.7058 0.7083
vn -0.0257 0.9997 0.0000
vn -0.0141 -0.9920 0.1253
vn -0.0140 -0.9920 0.1253
vn -0.0039 -0.9980 0.0628
vn -0.0050 -0.9979 0.0644
vn -0.0242 -0.0000 0.9997
vn -0.0004 0.0011 1.0000
vn -0.0005 0.0011 1.0000
vn -0.0205 0.0019 0.9998
vn -0.0057 0.0006 1.0000
vn 0.0030 -0.0002 1.0000
vn -0.0208 0.0019 0.9998
vn -0.0190 -0.9838 0.1782
vn 0.0104 -0.9957 0.0915
vn 0.0111 -0.9959 0.0895
vn 0.0103 0.0010 0.9999
vn 0.0130 0.0013 0.9999
vn 0.0107 -0.0017 0.9999
vn 0.0001 -0.0000 1.0000
vn 0.0104 -0.0017 0.9999
vn -0.0255 -0.9950 0.0969
vn -0.0261 -0.9952 0.0948
vn 0.0095 -1.0000 0.0000
vn 0.0091 -1.0000 0.0000
vn 0.0466 -0.9969 0.0628
vn 0.0457 -0.9968 0.0651
vn 0.0176 -0.0000 0.9998
vn -0.0060 -0.7059 0.7083
vn -0.0054 -0.7059 0.7083
vn 0.0108 -0.7058 0.7083
vn -0.0007 -0.7059 0.7083
vn 0.0032 -0.7059 0.7083
vn -0.0503 -0.7050 0.7075
vn 0.0186 -0.7067 0.7072
vn 0.0206 -0.7067 0.7072
vn -0.0064 -0.7068 0.7073
vn -0.0058 -0.7068 0.7073
vn -0.0296 -0.7065 0.7070
vn 0.0146 -0.7058 0.7083
vn 0.0012 -0.9820 0.1888
s 1
f 1/1/1 2/2/1 3/3/1 4/4/1
f 5/5/2 6/6/3 7/7/4 8/8/4
f 9/9/5 10/10/6 11/11/7 12/12/8
f 13/13/9 14/14/10 6/6/3 5/5/2
f 15/15/11 16/16/11 17/17/12 18/18/12
f 18/18/12 17/17/12 19/19/13 20/20/14
f 18/18/1 20/20/15 21/21/16 22/22/1
f 12/12/8 11/11/7 23/23/17 24/24/18
f 25/25/19 26/26/20 27/27/21 28/28/22
f 26/26/23 29/29/24 14/14/10 13/13/9
f 13/13/25 30/30/26 31/31/27 32/32/28
f 30/30/26 33/33/29 34/34/29 31/31/27
f 32/32/30 35/35/31 36/36/32 27/27/33
f 27/27/33 36/36/32 37/37/34 28/28/35
f 28/28/35 37/37/34 10/10/6 9/9/5
f 20/20/15 38/38/36 39/39/37 21/21/16
f 38/38/36 40/40/38 9/9/39 39/39/37
f 41/41/40 42/42/40 43/43/41 44/44/41
f 24/24/18 23/23/17 42/42/40 41/41/40
f 40/40/38 25/25/19 28/28/22 9/9/39
f 45/45/42 46/46/43 47/47/44 48/48/45
f 48/48/45 47/47/44 49/49/46 50/50/47
f 26/26/23 50/50/47 49/49/46 29/29/24
f 26/26/20 13/13/25 32/32/28 27/27/21
f 32/32/30 51/51/48 52/52/49 35/35/31
f 45/45/50 38/38/51 20/20/52
f 25/25/53 50/50/54 26/26/55
f 45/45/50 48/48/56 40/40/57 38/38/51
f 48/48/56 50/50/54 25/25/53 40/40/57
f 20/20/14 19/19/13 46/46/43 45/45/42
f 12/12/58 39/39/59 9/9/60
f 41/41/61 44/44/62 53/53/62 22/22/63
f 12/12/58 24/24/64 21/21/65 39/39/59
f 24/24/64 41/41/61 22/22/63 21/21/65
f 15/15/1 18/18/1 22/22/1 53/53/1
f 5/5/66 30/30/67 13/13/68
f 31/31/69 51/51/70 32/32/71
f 5/5/66 8/8/72 33/33/72 30/30/67
f 54/54/73 51/51/70 31/31/69 34/34/73
f 54/54/74 55/55/74 52/52/49 51/51/48
f 56/56/75 57/57/75 58/58/76 59/59/77
f 60/60/78 61/61/79 62/62/1 63/63/78
f 64/64/80 56/56/81 65/65/1 66/66/82
f 67/67/83 68/68/84 69/69/4 70/70/83
f 61/61/79 71/71/85 72/72/85 62/62/1
f 73/73/86 74/74/87 75/75/1 76/76/88
f 56/56/81 73/73/86 76/76/88 65/65/1
f 71/71/85 64/64/80 66/66/82 72/72/85
f 77/77/89 78/78/4 79/79/90 80/80/91
f 80/80/91 79/79/90 81/81/4 82/82/92
f 56/56/75 82/82/92 81/81/4 57/57/75
f 74/74/87 67/67/93 83/83/93 75/75/1
f 59/59/77 58/58/76 69/69/4 68/68/84
f 77/77/94 61/61/94 60/60/95
f 64/64/96 82/82/97 56/56/98
f 59/59/99 73/73/100 56/56/101
f 74/74/102 68/68/103 67/67/104
f 77/77/94 80/80/105 71/71/106 61/61/94
f 80/80/105 82/82/97 64/64/96 71/71/106
f 59/59/99 68/68/103 74/74/102 73/73/100
f 60/60/107 84/84/107 78/78/4 77/77/89
f 85/85/108 86/86/109 87/87/110 88/88/111
f 89/89/112 90/90/113 91/91/114 92/92/112
f 93/93/115 85/85/116 94/94/117 95/95/118
f 96/96/119 97/97/120 98/98/121 99/99/119
f 90/90/113 100/100/122 101/101/123 91/91/114
f 102/102/124 103/103/125 104/104/1 105/105/126
f 85/85/116 102/102/124 105/105/126 94/94/117
f 100/100/122 93/93/115 95/95/118 101/101/123
f 106/106/127 107/107/128 108/108/129 109/109/130
f 109/109/130 108/108/129 110/110/131 111/111/132
f 85/85/108 111/111/132 110/110/131 86/86/109
f 103/103/125 96/96/133 112/112/133 104/104/1
f 88/88/111 87/87/110 98/98/121 97/97/120
f 106/106/134 90/90/135 89/89/136
f 93/93/137 111/111/138 85/85/139
f 88/88/140 102/102/140 85/85/141
f 103/103/142 97/97/143 96/96/144
f 106/106/134 109/109/145 100/100/145 90/90/135
f 109/109/145 111/111/138 93/93/137 100/100/145
f 88/88/140 97/97/143 103/103/142 102/102/140
f 89/89/146 113/113/146 107/107/128 106/106/127
