# Blender v2.77 (sub 0) OBJ File: ''
# www.blender.org
o Desk_small:Mesh_Untitled.002
v 1.249252 -0.002355 1.926617
v 1.428438 -0.002355 1.926617
v 1.428438 2.150248 1.926617
v 1.249252 2.150248 1.926617
v 1.249252 2.150248 1.747432
v 1.428438 2.150248 1.747432
v 1.428438 -0.002355 1.747431
v 1.249252 -0.002355 1.747431
v -1.397927 -0.002355 1.926617
v -1.218741 -0.002355 1.926617
v -1.218741 2.150248 1.926617
v -1.397927 2.150248 1.926617
v -1.397927 2.150248 1.747432
v -1.218741 2.150248 1.747432
v -1.218741 -0.002355 1.747431
v -1.397927 -0.002355 1.747431
v 1.249252 -0.002354 -1.925426
v 1.428438 -0.002354 -1.925426
v 1.428438 2.150249 -1.925426
v 1.249252 2.150249 -1.925426
v 1.249252 2.150249 -2.104611
v 1.428438 2.150249 -2.104611
v 1.428438 -0.002354 -2.104613
v 1.249252 -0.002354 -2.104613
v -1.397927 -0.002354 -1.925426
v -1.218741 -0.002354 -1.925426
v -1.218741 2.150249 -1.925426
v -1.397927 2.150249 -1.925426
v -1.397927 2.150249 -2.104611
v -1.218741 2.150249 -2.104611
v -1.218741 -0.002354 -2.104613
v -1.397927 -0.002354 -2.104613
v -1.578677 2.110854 1.948137
v 1.559604 2.110854 1.948137
v 1.559604 2.192976 1.948137
v -1.578677 2.192976 1.948137
v 1.559604 2.192976 1.725912
v -1.578677 2.192976 1.725912
v 1.559604 2.110854 1.725912
v -1.578677 2.110854 1.725912
v -1.578677 2.110854 -1.904335
v 1.559604 2.110854 -1.904335
v 1.559604 2.192976 -1.904335
v -1.578677 2.192976 -1.904335
v 1.559604 2.192976 -2.126559
v -1.578677 2.192976 -2.126559
v 1.559604 2.110854 -2.126559
v -1.578677 2.110854 -2.126559
v -1.645239 2.159189 2.181174
v -1.301445 2.159189 2.170731
v -1.301445 2.258339 2.170732
v -1.645239 2.258339 2.181175
v -1.294417 2.258342 -2.269819
v -1.645239 2.258342 -2.263077
v -1.294417 2.159190 -2.269819
v -1.645239 2.159190 -2.263078
v -1.271208 2.159189 2.170731
v -0.933353 2.159189 2.181174
v -0.933353 2.258339 2.181175
v -1.271208 2.258339 2.170732
v -0.933353 2.258342 -2.263077
v -1.277147 2.275177 -2.263077
v -0.933353 2.159190 -2.263078
v -1.277147 2.159190 -2.263078
v -0.922912 2.159189 2.187820
v -0.565260 2.159189 2.181174
v -0.565260 2.244285 2.181175
v -0.922912 2.244285 2.187820
v -0.565260 2.251991 -2.263077
v -0.912569 2.251991 -2.276561
v -0.565260 2.166893 -2.263078
v -0.912569 2.166893 -2.276561
v -0.556646 2.132262 2.174182
v -0.195035 2.132262 2.176081
v -0.195035 2.231412 2.176081
v -0.556646 2.231412 2.174182
v -0.176083 2.258342 -2.254651
v -0.540962 2.258342 -2.263077
v -0.176083 2.159190 -2.254651
v -0.540962 2.159190 -2.263078
v -0.160991 2.152290 2.184023
v 0.170925 2.152290 2.181174
v 0.170925 2.251441 2.181175
v -0.160991 2.251441 2.184023
v 0.168235 2.250292 -2.263128
v -0.154474 2.250292 -2.254702
v 0.168235 2.151140 -2.263128
v -0.154474 2.151140 -2.254702
v 0.195223 2.159189 2.181174
v 0.551157 2.159189 2.176517
v 0.551157 2.258339 2.176517
v 0.195223 2.258339 2.181175
v 0.546066 2.258342 -2.259697
v 0.195223 2.258342 -2.263077
v 0.546066 2.159190 -2.259698
v 0.195223 2.159190 -2.263078
v 0.569765 2.149611 2.181119
v 0.913558 2.149611 2.185776
v 0.913558 2.248763 2.185776
v 0.569765 2.248763 2.181119
v 0.907110 2.270905 -2.263077
v 0.563316 2.270905 -2.263077
v 0.907110 2.171753 -2.263078
v 0.563316 2.171753 -2.263078
v 0.931408 2.159189 2.185832
v 1.275202 2.159189 2.181174
v 1.275202 2.258339 2.181175
v 0.931408 2.258339 2.185833
v 1.275202 2.258342 -2.256316
v 0.931408 2.258342 -2.256316
v 1.275202 2.159190 -2.256317
v 0.931408 2.159190 -2.256317
v 1.290046 2.180837 2.180964
v 1.645681 2.180837 2.182857
v 1.645681 2.279988 2.182858
v 1.290046 2.279988 2.180964
v 1.646819 2.258342 -2.274909
v 1.299501 2.258342 -2.263077
v 1.646819 2.159190 -2.274910
v 1.299501 2.159190 -2.263078
v 1.281735 0.502579 1.900333
v 1.369056 0.502579 1.900333
v 1.369056 0.502580 -2.084678
v 1.281735 0.502580 -2.084678
v 1.281735 0.347149 -2.084678
v 1.369056 0.347149 -2.084678
v 1.369056 0.347148 1.900333
v 1.281735 0.347148 1.900333
v -1.346737 0.502579 1.900333
v -1.259416 0.502579 1.900333
v -1.259416 0.502580 -2.084678
v -1.346737 0.502580 -2.084678
v -1.346737 0.347149 -2.084678
v -1.259416 0.347149 -2.084678
v -1.259416 0.347148 1.900333
v -1.346737 0.347148 1.900333
v 1.305793 0.502579 1.862150
v 1.305793 0.502579 1.778447
v -1.340468 0.502579 1.778447
v -1.340468 0.502579 1.862150
v -1.340468 0.347148 1.862150
v -1.340468 0.347148 1.778447
v 1.305793 0.347148 1.778447
v 1.305793 0.347148 1.862150
v 1.305793 0.502580 -1.958026
v 1.305793 0.502580 -2.041729
v -1.340468 0.502580 -2.041729
v -1.340468 0.502580 -1.958026
v -1.340468 0.347149 -1.958026
v -1.340468 0.347149 -2.041729
v 1.305793 0.347149 -2.041729
v 1.305793 0.347149 -1.958026
vt 0.6573 0.7937
vt 0.6573 0.7851
vt 0.7614 0.7851
vt 0.7614 0.7937
vt 0.7614 0.7678
vt 0.7614 0.7764
vt 0.6573 0.7764
vt 0.6573 0.7678
vt 0.6573 0.8024
vt 0.6486 0.8024
vt 0.6486 0.7937
vt 0.7614 0.8024
vt 0.6570 0.7086
vt 0.6570 0.6999
vt 0.7610 0.6999
vt 0.7610 0.7086
vt 0.7610 0.7172
vt 0.7610 0.7259
vt 0.6570 0.7259
vt 0.6570 0.7172
vt 0.6483 0.6913
vt 0.6570 0.6913
vt 0.6483 0.6999
vt 0.7610 0.6913
vt 0.6571 0.8409
vt 0.6571 0.8322
vt 0.7612 0.8322
vt 0.7612 0.8409
vt 0.7612 0.8149
vt 0.7612 0.8235
vt 0.6571 0.8235
vt 0.6571 0.8149
vt 0.6485 0.8149
vt 0.6485 0.8062
vt 0.6571 0.8062
vt 0.7612 0.8062
vt 0.6571 0.7381
vt 0.6571 0.7294
vt 0.7611 0.7294
vt 0.7611 0.7380
vt 0.7611 0.7467
vt 0.7611 0.7554
vt 0.6571 0.7554
vt 0.6571 0.7467
vt 0.6484 0.7554
vt 0.6571 0.7641
vt 0.6484 0.7641
vt 0.7611 0.7640
vt 0.7630 0.6700
vt 0.6113 0.6700
vt 0.6113 0.6660
vt 0.7630 0.6660
vt 0.6113 0.6553
vt 0.7630 0.6553
vt 0.7630 0.6847
vt 0.6113 0.6847
vt 0.6113 0.6807
vt 0.7630 0.6807
vt 0.6074 0.6660
vt 0.6074 0.6553
vt 0.7670 0.6553
vt 0.7670 0.6660
vt 0.7629 0.9670
vt 0.6113 0.9670
vt 0.6113 0.9630
vt 0.7629 0.9630
vt 0.7629 0.9924
vt 0.6113 0.9924
vt 0.6113 0.9817
vt 0.7629 0.9817
vt 0.6113 0.9777
vt 0.7629 0.9777
vt 0.6073 0.9924
vt 0.6073 0.9817
vt 0.7669 0.9817
vt 0.7669 0.9924
vt 0.9913 0.7935
vt 0.9908 0.8101
vt 0.9860 0.8100
vt 0.9865 0.7933
vt 0.7713 0.8100
vt 0.7717 0.7930
vt 0.7665 0.8099
vt 0.7669 0.7929
vt 0.7717 0.7882
vt 0.7714 0.7713
vt 0.9860 0.7719
vt 0.9865 0.7886
vt 0.9860 0.8148
vt 0.7713 0.8148
vt 0.9908 0.8211
vt 0.9913 0.8375
vt 0.9865 0.8376
vt 0.9860 0.8213
vt 0.7717 0.8373
vt 0.7717 0.8207
vt 0.7669 0.8376
vt 0.7661 0.8209
vt 0.7717 0.8587
vt 0.7717 0.8421
vt 0.9865 0.8424
vt 0.9860 0.8587
vt 0.7718 0.8151
vt 0.9860 0.8165
vt 0.9913 0.6461
vt 0.9909 0.6634
vt 0.9868 0.6633
vt 0.9872 0.6460
vt 0.7720 0.6628
vt 0.7714 0.6460
vt 0.7679 0.6630
vt 0.7673 0.6462
vt 0.7713 0.6837
vt 0.7720 0.6669
vt 0.9868 0.6674
vt 0.9871 0.6847
vt 0.7714 0.6419
vt 0.9872 0.6419
vt 0.9913 0.9527
vt 0.9913 0.9702
vt 0.9865 0.9702
vt 0.9865 0.9527
vt 0.7723 0.9700
vt 0.7720 0.9524
vt 0.7675 0.9701
vt 0.7672 0.9525
vt 0.7720 0.9924
vt 0.7723 0.9748
vt 0.9865 0.9750
vt 0.9865 0.9924
vt 0.7720 0.9476
vt 0.9865 0.9479
vt 0.9913 0.6048
vt 0.9911 0.6208
vt 0.9863 0.6208
vt 0.9865 0.6047
vt 0.7715 0.6203
vt 0.7720 0.6047
vt 0.7667 0.6202
vt 0.7672 0.6046
vt 0.7719 0.6407
vt 0.7715 0.6251
vt 0.9863 0.6255
vt 0.9864 0.6416
vt 0.7720 0.5999
vt 0.9865 0.5999
vt 0.9913 0.8639
vt 0.9911 0.8811
vt 0.9863 0.8810
vt 0.9865 0.8638
vt 0.7718 0.8808
vt 0.7717 0.8638
vt 0.7670 0.8808
vt 0.7669 0.8639
vt 0.7716 0.9025
vt 0.7718 0.8856
vt 0.9863 0.8858
vt 0.9864 0.9030
vt 0.7717 0.8590
vt 0.9865 0.8590
vt 0.9910 0.7329
vt 0.9913 0.7495
vt 0.9865 0.7496
vt 0.9862 0.7329
vt 0.7715 0.7496
vt 0.7714 0.7329
vt 0.7667 0.7496
vt 0.7666 0.7329
vt 0.7715 0.7710
vt 0.7715 0.7544
vt 0.9865 0.7544
vt 0.9863 0.7710
vt 0.7715 0.7282
vt 0.9863 0.7282
vt 0.9913 0.6899
vt 0.9911 0.7065
vt 0.9863 0.7064
vt 0.9865 0.6898
vt 0.7718 0.7064
vt 0.7718 0.6898
vt 0.7670 0.7064
vt 0.7670 0.6898
vt 0.7718 0.7278
vt 0.7718 0.7112
vt 0.9863 0.7112
vt 0.9865 0.7278
vt 0.7718 0.6850
vt 0.9865 0.6850
vt 0.9912 0.9081
vt 0.9913 0.9253
vt 0.9865 0.9253
vt 0.9864 0.9081
vt 0.7710 0.9249
vt 0.7716 0.9081
vt 0.7663 0.9247
vt 0.7668 0.9080
vt 0.7715 0.9465
vt 0.7710 0.9297
vt 0.9864 0.9301
vt 0.9863 0.9473
vt 0.7716 0.9033
vt 0.9864 0.9033
vt 0.7984 0.5837
vt 0.7984 0.5879
vt 0.6058 0.5879
vt 0.6058 0.5837
vt 0.6058 0.5996
vt 0.6058 0.5954
vt 0.7984 0.5954
vt 0.7984 0.5996
vt 0.6058 0.5762
vt 0.7984 0.5762
vt 0.9913 0.5879
vt 0.9913 0.5921
vt 0.7987 0.5921
vt 0.7987 0.5879
vt 0.7987 0.5804
vt 0.7987 0.5762
vt 0.9913 0.5762
vt 0.9913 0.5804
vt 0.9913 0.5996
vt 0.7987 0.5996
vt 0.6385 0.6300
vt 0.6385 0.6260
vt 0.7664 0.6260
vt 0.7664 0.6300
vt 0.7664 0.6375
vt 0.7664 0.6416
vt 0.6385 0.6416
vt 0.6385 0.6375
vt 0.6385 0.6185
vt 0.7664 0.6185
vt 0.6379 0.9437
vt 0.6379 0.9396
vt 0.7658 0.9396
vt 0.7658 0.9437
vt 0.7658 0.9281
vt 0.7658 0.9321
vt 0.6379 0.9321
vt 0.6379 0.9281
vt 0.7658 0.9512
vt 0.6379 0.9512
vn 0.0000 -0.0000 1.0000
vn 0.0000 0.0000 -1.0000
vn 0.0000 -1.0000 -0.0000
vn 1.0000 0.0000 0.0000
vn -1.0000 0.0000 0.0000
vn 0.0000 1.0000 0.0000
vn 0.0304 -0.0000 0.9995
vn -0.0192 0.0000 -0.9998
vn 1.0000 0.0000 0.0016
vn -0.0309 -0.0000 0.9995
vn 0.0247 0.9997 0.0019
vn -1.0000 0.0000 0.0013
vn 0.0186 -0.0000 0.9998
vn -0.0000 1.0000 0.0017
vn 0.0388 0.0000 -0.9992
vn 0.0000 -1.0000 -0.0017
vn -1.0000 0.0000 -0.0023
vn -0.0053 0.0000 1.0000
vn -0.0001 1.0000 0.0061
vn 0.0231 0.0000 -0.9997
vn 0.0001 -1.0000 -0.0061
vn 1.0000 0.0000 0.0043
vn -1.0000 0.0000 -0.0035
vn 0.0086 -0.0000 1.0000
vn -0.0000 1.0000 -0.0003
vn -0.0261 0.0000 -0.9997
vn 0.0000 -1.0000 0.0003
vn 1.0000 0.0000 -0.0006
vn -1.0000 0.0000 -0.0015
vn 0.0131 -0.0000 0.9999
vn 0.0096 0.0000 -1.0000
vn 1.0000 0.0000 -0.0011
vn -0.0135 0.0000 0.9999
vn -0.0000 1.0000 0.0050
vn 0.0000 -1.0000 -0.0050
vn 1.0000 0.0000 -0.0014
vn -1.0000 0.0000 0.0015
vn 0.0135 -0.0000 0.9999
vn -0.0001 1.0000 -0.0049
vn -0.0340 0.0000 -0.9994
vn 0.0001 -1.0000 0.0049
vn 1.0000 0.0000 0.0003
vn -1.0000 0.0000 -0.0021
s 1
f 1/1/1 2/2/1 3/3/1 4/4/1
f 5/5/2 6/6/2 7/7/2 8/8/2
f 8/9/3 7/10/3 2/11/3 1/1/3
f 2/2/4 7/7/4 6/6/4 3/3/4
f 8/9/5 1/1/5 4/4/5 5/12/5
f 9/13/1 10/14/1 11/15/1 12/16/1
f 13/17/2 14/18/2 15/19/2 16/20/2
f 16/21/3 15/22/3 10/14/3 9/23/3
f 10/14/4 15/22/4 14/24/4 11/15/4
f 16/20/5 9/13/5 12/16/5 13/17/5
f 17/25/1 18/26/1 19/27/1 20/28/1
f 21/29/2 22/30/2 23/31/2 24/32/2
f 24/32/3 23/33/3 18/34/3 17/35/3
f 18/26/4 23/31/4 22/30/4 19/27/4
f 24/32/5 17/35/5 20/36/5 21/29/5
f 25/37/1 26/38/1 27/39/1 28/40/1
f 29/41/2 30/42/2 31/43/2 32/44/2
f 32/45/3 31/43/3 26/46/3 25/47/3
f 26/46/4 31/43/4 30/42/4 27/48/4
f 32/44/5 25/37/5 28/40/5 29/41/5
f 33/49/1 34/50/1 35/51/1 36/52/1
f 36/52/6 35/51/6 37/53/6 38/54/6
f 38/55/2 37/56/2 39/57/2 40/58/2
f 40/58/3 39/57/3 34/50/3 33/49/3
f 34/59/4 39/60/4 37/53/4 35/51/4
f 40/61/5 33/62/5 36/52/5 38/54/5
f 41/63/1 42/64/1 43/65/1 44/66/1
f 44/67/6 43/68/6 45/69/6 46/70/6
f 46/70/2 45/69/2 47/71/2 48/72/2
f 48/72/3 47/71/3 42/64/3 41/63/3
f 42/73/4 47/74/4 45/69/4 43/68/4
f 48/75/5 41/76/5 44/67/5 46/70/5
f 49/77/7 50/78/7 51/79/7 52/80/7
f 52/80/6 51/79/6 53/81/6 54/82/6
f 54/82/8 53/81/8 55/83/8 56/84/8
f 56/85/3 55/86/3 50/87/3 49/88/3
f 50/89/9 55/90/9 53/81/9 51/79/9
f 56/85/5 49/88/5 52/80/5 54/82/5
f 57/91/10 58/92/10 59/93/10 60/94/10
f 60/94/11 59/93/11 61/95/11 62/96/11
f 62/96/2 61/95/2 63/97/2 64/98/2
f 64/99/3 63/100/3 58/101/3 57/102/3
f 58/101/4 63/100/4 61/95/4 59/93/4
f 64/103/12 57/104/12 60/94/12 62/96/12
f 65/105/13 66/106/13 67/107/13 68/108/13
f 68/108/14 67/107/14 69/109/14 70/110/14
f 70/110/15 69/109/15 71/111/15 72/112/15
f 72/113/16 71/114/16 66/115/16 65/116/16
f 66/115/4 71/114/4 69/109/4 67/107/4
f 72/117/17 65/118/17 68/108/17 70/110/17
f 73/119/18 74/120/18 75/121/18 76/122/18
f 76/122/19 75/121/19 77/123/19 78/124/19
f 78/124/20 77/123/20 79/125/20 80/126/20
f 80/127/21 79/128/21 74/129/21 73/130/21
f 74/129/22 79/128/22 77/123/22 75/121/22
f 80/131/23 73/132/23 76/122/23 78/124/23
f 81/133/24 82/134/24 83/135/24 84/136/24
f 84/136/25 83/135/25 85/137/25 86/138/25
f 86/138/26 85/137/26 87/139/26 88/140/26
f 88/141/27 87/142/27 82/143/27 81/144/27
f 82/143/28 87/142/28 85/137/28 83/135/28
f 88/145/29 81/146/29 84/136/29 86/138/29
f 89/147/30 90/148/30 91/149/30 92/150/30
f 92/150/6 91/149/6 93/151/6 94/152/6
f 94/152/31 93/151/31 95/153/31 96/154/31
f 96/155/3 95/156/3 90/157/3 89/158/3
f 90/157/32 95/156/32 93/151/32 91/149/32
f 96/159/5 89/160/5 92/150/5 94/152/5
f 97/161/33 98/162/33 99/163/33 100/164/33
f 100/164/34 99/163/34 101/165/34 102/166/34
f 102/166/2 101/165/2 103/167/2 104/168/2
f 104/169/35 103/170/35 98/171/35 97/172/35
f 98/171/36 103/170/36 101/165/36 99/163/36
f 104/173/37 97/174/37 100/164/37 102/166/37
f 105/175/38 106/176/38 107/177/38 108/178/38
f 108/178/6 107/177/6 109/179/6 110/180/6
f 110/180/2 109/179/2 111/181/2 112/182/2
f 112/183/3 111/184/3 106/185/3 105/186/3
f 106/185/4 111/184/4 109/179/4 107/177/4
f 112/187/5 105/188/5 108/178/5 110/180/5
f 113/189/18 114/190/18 115/191/18 116/192/18
f 116/192/39 115/191/39 117/193/39 118/194/39
f 118/194/40 117/193/40 119/195/40 120/196/40
f 120/197/41 119/198/41 114/199/41 113/200/41
f 114/199/42 119/198/42 117/193/42 115/191/42
f 120/201/43 113/202/43 116/192/43 118/194/43
f 121/203/6 122/204/6 123/205/6 124/206/6
f 125/207/3 126/208/3 127/209/3 128/210/3
f 127/209/4 126/208/4 123/205/4 122/204/4
f 125/211/5 128/212/5 121/203/5 124/206/5
f 129/213/6 130/214/6 131/215/6 132/216/6
f 133/217/3 134/218/3 135/219/3 136/220/3
f 135/221/4 134/222/4 131/215/4 130/214/4
f 133/217/5 136/220/5 129/213/5 132/216/5
f 137/223/6 138/224/6 139/225/6 140/226/6
f 141/227/3 142/228/3 143/229/3 144/230/3
f 143/231/2 142/232/2 139/225/2 138/224/2
f 141/227/1 144/230/1 137/223/1 140/226/1
f 145/233/6 146/234/6 147/235/6 148/236/6
f 149/237/3 150/238/3 151/239/3 152/240/3
f 151/239/2 150/238/2 147/235/2 146/234/2
f 149/241/1 152/242/1 145/233/1 148/236/1
