# Blender v2.77 (sub 0) OBJ File: ''
# www.blender.org
o Cylinder.007_Cylinder.008
v -0.113354 0.133230 0.276143
v -0.113354 0.133230 -0.276143
v -0.138509 0.007458 -0.312367
v -0.138509 0.007456 0.312367
v -0.087584 0.133230 -0.297630
v -0.112739 0.007458 -0.333852
v -0.125623 0.007458 -0.330974
v -0.100468 0.133230 -0.294752
v 0.087584 0.133230 -0.297630
v 0.112739 0.007458 -0.333852
v -0.112739 0.007456 0.333852
v -0.087584 0.133230 0.297630
v -0.100468 0.133230 0.294752
v -0.125623 0.007456 0.330974
v 0.109901 0.133230 -0.286887
v 0.135057 0.007458 -0.323109
v 0.125623 0.007458 -0.330974
v 0.100468 0.133230 -0.294752
v 0.113354 0.133230 -0.276143
v 0.113354 0.133230 0.276143
v 0.138508 0.007456 0.312367
v 0.138508 0.007458 -0.312367
v -0.135057 0.007456 0.323109
v -0.109901 0.133230 0.286887
v 0.087584 0.133230 0.297630
v 0.112739 0.007456 0.333852
v -0.135057 0.007458 -0.323109
v -0.109901 0.133230 -0.286887
v 0.100468 0.133230 0.294752
v 0.125623 0.007456 0.330974
v 0.135057 0.007456 0.323109
v 0.109901 0.133230 0.286887
v -0.122128 -0.000000 0.320053
v -0.109749 -0.000000 0.322819
v 0.109749 -0.000000 0.322819
v -0.134508 0.000000 -0.302176
v -0.134508 -0.000000 0.302176
v -0.131191 -0.000000 0.312497
v 0.134508 0.000000 -0.302176
v 0.131190 0.000000 -0.312497
v -0.122128 0.000000 -0.320053
v -0.131191 0.000000 -0.312497
v 0.122128 0.000000 -0.320053
v 0.131190 -0.000000 0.312497
v 0.134508 -0.000000 0.302176
v 0.109749 0.000000 -0.322819
v -0.109749 0.000000 -0.322819
v 0.122128 -0.000000 0.320053
v 0.107167 0.140000 0.262363
v 0.103865 0.140000 0.272642
v 0.094837 0.140000 0.280168
v 0.082509 0.140000 0.282922
v 0.082509 0.140000 -0.282922
v 0.094837 0.140000 -0.280168
v 0.107167 0.140000 -0.262363
v -0.094839 0.140000 0.280168
v -0.103865 0.140000 0.272642
v -0.103863 0.140000 -0.272642
v -0.094839 0.140000 -0.280168
v -0.107167 0.140000 -0.262363
v -0.082509 0.140000 0.282922
v 0.103863 0.140000 -0.272642
v -0.082509 0.140000 -0.282922
v -0.107167 0.140000 0.262363
vt 0.8491 0.8231
vt 0.8985 0.8222
vt 0.9012 0.8328
vt 0.8469 0.8333
vt 0.9014 0.8212
vt 0.9043 0.8324
vt 0.9031 0.8325
vt 0.9004 0.8218
vt 0.8211 0.8320
vt 0.8360 0.8395
vt 0.8338 0.8499
vt 0.8134 0.8433
vt 0.8440 0.8328
vt 0.8463 0.8225
vt 0.8472 0.8230
vt 0.8451 0.8330
vt 0.8380 0.8402
vt 0.8358 0.8502
vt 0.8348 0.8500
vt 0.8370 0.8400
vt 0.8389 0.8402
vt 0.8882 0.8392
vt 0.8910 0.8498
vt 0.8366 0.8504
vt 0.8460 0.8332
vt 0.8482 0.8232
vt 0.8314 0.8149
vt 0.8236 0.8263
vt 0.9021 0.8326
vt 0.8994 0.8222
vt 0.8902 0.8389
vt 0.8929 0.8495
vt 0.8919 0.8497
vt 0.8892 0.8392
vt 0.8912 0.8382
vt 0.8941 0.8495
vt 0.8451 0.8343
vt 0.8436 0.8341
vt 0.8235 0.8276
vt 0.9003 0.8337
vt 0.8478 0.8343
vt 0.8465 0.8343
vt 0.8376 0.8513
vt 0.8363 0.8514
vt 0.9029 0.8338
vt 0.9015 0.8338
vt 0.8348 0.8514
vt 0.8913 0.8508
vt 0.8900 0.8508
vt 0.8334 0.8511
vt 0.8132 0.8447
vt 0.8941 0.8510
vt 0.8927 0.8509
vt 0.9043 0.8339
vt 0.8870 0.8383
vt 0.8881 0.8381
vt 0.8892 0.8376
vt 0.8902 0.8367
vt 0.8366 0.8380
vt 0.8378 0.8386
vt 0.8400 0.8393
vt 0.8480 0.8216
vt 0.8492 0.8220
vt 0.8983 0.8211
vt 0.8995 0.8205
vt 0.8973 0.8213
vt 0.8468 0.8209
vt 0.8389 0.8391
vt 0.8223 0.8308
vt 0.9005 0.8197
vt 0.8325 0.8138
vt 0.8503 0.8222
vt 0.8457 0.7946
vt 0.8461 0.7930
vt 0.8461 0.8144
vt 0.8457 0.8133
vt 0.8467 0.7922
vt 0.8467 0.8152
vt 0.8476 0.7919
vt 0.8476 0.8155
vt 0.9007 0.7919
vt 0.9007 0.8155
vt 0.9016 0.7922
vt 0.9016 0.8152
vt 0.9022 0.7930
vt 0.9022 0.8144
vt 0.9026 0.7941
vt 0.9026 0.8128
vt 0.9021 0.7705
vt 0.9021 0.7849
vt 0.9019 0.7861
vt 0.9019 0.7694
vt 0.9012 0.7869
vt 0.9012 0.7686
vt 0.9003 0.7872
vt 0.9003 0.7683
vt 0.8542 0.7872
vt 0.8542 0.7683
vt 0.8533 0.7869
vt 0.8533 0.7686
vt 0.8526 0.7861
vt 0.8526 0.7694
vt 0.8524 0.7850
vt 0.8524 0.7706
vn -0.8319 0.5368 0.1404
vn -0.8319 0.5368 -0.1404
vn -0.9573 -0.2144 -0.1939
vn -0.9573 -0.2144 0.1939
vn -0.0800 0.6489 -0.7567
vn -0.1130 -0.3243 -0.9392
vn -0.4208 -0.2972 -0.8571
vn -0.3295 0.6508 -0.6841
vn 0.0800 0.6489 -0.7567
vn 0.1130 -0.3243 -0.9392
vn -0.1130 -0.3243 0.9392
vn -0.0800 0.6489 0.7567
vn -0.3295 0.6508 0.6841
vn -0.4208 -0.2972 0.8571
vn 0.6483 0.6205 -0.4413
vn 0.7763 -0.2673 -0.5709
vn 0.4208 -0.2972 -0.8571
vn 0.3295 0.6508 -0.6841
vn 0.8319 0.5368 -0.1404
vn 0.8319 0.5368 0.1404
vn 0.9573 -0.2144 0.1939
vn 0.9573 -0.2144 -0.1939
vn -0.7762 -0.2673 0.5709
vn -0.6483 0.6205 0.4413
vn 0.0800 0.6489 0.7567
vn 0.1130 -0.3243 0.9392
vn -0.7763 -0.2673 -0.5709
vn -0.6483 0.6205 -0.4413
vn 0.3295 0.6508 0.6841
vn 0.4208 -0.2972 0.8571
vn 0.7763 -0.2673 0.5709
vn 0.6483 0.6205 0.4413
vn -0.1507 -0.9453 0.2894
vn -0.0306 -0.9520 0.3047
vn 0.0306 -0.9520 0.3047
vn -0.5166 -0.8554 -0.0367
vn -0.5166 -0.8554 0.0366
vn -0.3639 -0.9119 0.1899
vn 0.5167 -0.8554 -0.0367
vn 0.3639 -0.9119 -0.1899
vn -0.1507 -0.9452 -0.2895
vn -0.3639 -0.9119 -0.1899
vn 0.1508 -0.9452 -0.2895
vn 0.3639 -0.9119 0.1899
vn 0.5167 -0.8554 0.0366
vn 0.0306 -0.9519 -0.3047
vn -0.0306 -0.9519 -0.3047
vn 0.1507 -0.9453 0.2894
vn 0.4052 0.9139 0.0245
vn 0.2654 0.9545 0.1362
vn 0.1061 0.9725 0.2075
vn 0.0210 0.9749 0.2218
vn 0.0210 0.9749 -0.2218
vn 0.1061 0.9725 -0.2075
vn 0.4052 0.9139 -0.0245
vn -0.1061 0.9725 0.2075
vn -0.2654 0.9545 0.1362
vn -0.2653 0.9545 -0.1362
vn -0.1061 0.9725 -0.2075
vn -0.4052 0.9139 -0.0245
vn -0.0210 0.9749 0.2218
vn 0.2653 0.9545 -0.1362
vn -0.0210 0.9749 -0.2218
vn -0.4052 0.9139 0.0245
s 1
f 1/1/1 2/2/2 3/3/3 4/4/4
f 5/5/5 6/6/6 7/7/7 8/8/8
f 5/9/5 9/10/9 10/11/10 6/12/6
f 11/13/11 12/14/12 13/15/13 14/16/14
f 15/17/15 16/18/16 17/19/17 18/20/18
f 19/21/19 20/22/20 21/23/21 22/24/22
f 23/25/23 24/26/24 1/1/1 4/4/4
f 25/27/25 12/14/12 11/13/11 26/28/26
f 8/8/8 7/7/7 27/29/27 28/30/28
f 19/21/19 22/24/22 16/18/16 15/17/15
f 14/16/14 13/15/13 24/26/24 23/25/23
f 29/31/29 30/32/30 31/33/31 32/34/32
f 32/34/32 31/33/31 21/23/21 20/22/20
f 25/35/25 26/36/26 30/32/30 29/31/29
f 18/20/18 17/19/17 10/11/10 9/10/9
f 11/13/11 14/16/14 33/37/33 34/38/34
f 34/38/34 35/39/35 26/28/26 11/13/11
f 4/4/4 3/3/3 36/40/36 37/41/37
f 14/16/14 23/25/23 38/42/38 33/37/33
f 39/43/39 40/44/40 16/18/16 22/24/22
f 41/45/41 42/46/42 27/29/27 7/7/7
f 40/44/40 43/47/43 17/19/17 16/18/16
f 21/23/21 31/33/31 44/48/44 45/49/45
f 46/50/46 47/51/47 6/12/6 10/11/10
f 10/11/10 17/19/17 43/47/43 46/50/46
f 35/52/35 48/53/48 30/32/30 26/36/26
f 23/25/23 4/4/4 37/41/37 38/42/38
f 47/54/47 41/45/41 7/7/7 6/6/6
f 45/49/45 39/43/39 22/24/22 21/23/21
f 42/46/42 36/40/36 3/3/3 27/29/27
f 48/53/48 44/48/44 31/33/31 30/32/30
f 49/55/49 50/56/50 32/34/32 20/22/20
f 25/35/25 29/31/29 51/57/51 52/58/52
f 29/31/29 32/34/32 50/56/50 51/57/51
f 53/59/53 54/60/54 18/20/18 9/10/9
f 55/61/55 49/55/49 20/22/20 19/21/19
f 56/62/56 57/63/57 24/26/24 13/15/13
f 8/8/8 28/30/28 58/64/58 59/65/59
f 60/66/60 58/64/58 28/30/28 2/2/2
f 61/67/61 56/62/56 13/15/13 12/14/12
f 15/17/15 18/20/18 54/60/54 62/68/62
f 63/69/63 53/59/53 9/10/9 5/9/5
f 5/5/5 8/8/8 59/65/59 63/70/63
f 52/71/52 61/67/61 12/14/12 25/27/25
f 1/1/1 24/26/24 57/63/57 64/72/64
f 2/2/2 1/1/1 64/72/64 60/66/60
f 19/21/19 15/17/15 62/68/62 55/61/55
f 28/30/28 27/29/27 3/3/3 2/2/2
f 46/73/46 43/74/43 41/75/41 47/76/47
f 43/74/43 40/77/40 42/78/42 41/75/41
f 40/77/40 39/79/39 36/80/36 42/78/42
f 39/79/39 45/81/45 37/82/37 36/80/36
f 45/81/45 44/83/44 38/84/38 37/82/37
f 44/83/44 48/85/48 33/86/33 38/84/38
f 48/85/48 35/87/35 34/88/34 33/86/33
f 61/89/61 52/90/52 51/91/51 56/92/56
f 56/92/56 51/91/51 50/93/50 57/94/57
f 57/94/57 50/93/50 49/95/49 64/96/64
f 64/96/64 49/95/49 55/97/55 60/98/60
f 60/98/60 55/97/55 62/99/62 58/100/58
f 58/100/58 62/99/62 54/101/54 59/102/59
f 59/102/59 54/101/54 53/103/53 63/104/63
